<svg width="85" height="18" viewBox="0 0 85 18" fill="none" xmlns="http://www.w3.org/2000/svg">
<path d="M2.69141 8.57422C2.69141 13.0977 4.73438 15.3594 8.82031 15.3594C12.8203 15.3594 14.8203 13.0977 14.8203 8.57422C14.8203 4.11328 12.8203 1.88281 8.82031 1.88281C4.73438 1.88281 2.69141 4.11328 2.69141 8.57422ZM0.40625 8.64453C0.40625 2.96484 3.21094 0.125 8.82031 0.125C14.3438 0.125 17.1055 2.96484 17.1055 8.64453C17.1055 14.293 14.3438 17.1172 8.82031 17.1172C3.21094 17.1172 0.40625 14.293 0.40625 8.64453ZM20.5156 17V0.242188H27.3125C30.7344 0.242188 32.4453 1.73828 32.4453 4.73047C32.4453 7.98828 30.1055 9.97656 25.4258 10.6953L24.9805 8.86719C28.418 8.35938 30.1367 7.01172 30.1367 4.82422C30.1367 2.96484 29.1289 2.03516 27.1133 2.03516H22.6836V17H20.5156ZM46.6367 0.242188V2H41.3633V17H39.1953V2H33.9219V0.242188H46.6367ZM52.0977 0.242188V17H48.9922V0.242188H52.0977ZM71.5859 0.242188L64.2383 17H60.8984L53.8672 0.242188H57.5586L62.75 13.0742L67.9297 0.242188H71.5859ZM84.3477 0.242188V2.91406H76.4258V7.13281H83.9492V9.91016H76.3906V17H73.3438V0.242188H84.3477Z" fill="black"/>
</svg>
