<svg width="48" height="48" viewBox="0 0 48 48" fill="none" xmlns="http://www.w3.org/2000/svg">
<g opacity="0.6">
<mask id="mask0_1_126" style="mask-type:alpha" maskUnits="userSpaceOnUse" x="0" y="0" width="48" height="48">
<rect y="48" width="48" height="48" transform="rotate(-90 0 48)" fill="#D9D9D9"/>
</mask>
<g mask="url(#mask0_1_126)">
<path d="M41.965 31.602L41.9651 31.6018C42.9875 29.2338 43.5001 26.7015 43.5001 24C43.5001 21.2985 42.9875 18.7662 41.9651 16.3982L41.965 16.398C40.9397 14.0203 39.55 11.957 37.7966 10.2036C36.0431 8.45009 33.9798 7.06047 31.6021 6.03513L31.6019 6.03504C29.2339 5.01258 26.7017 4.5 24.0001 4.5C21.2986 4.5 18.7663 5.01258 16.3983 6.03504L16.3981 6.03513C14.0204 7.06047 11.9571 8.45009 10.2037 10.2036C8.45022 11.957 7.05992 14.0203 6.03325 16.398L41.965 31.602ZM41.965 31.602C40.9397 33.9797 39.55 36.043 37.7966 37.7964C36.0431 39.5499 33.9798 40.9395 31.6021 41.9649L31.6019 41.965M41.965 31.602L31.6019 41.965M31.6019 41.965C29.2339 42.9874 26.7017 43.5 24.0001 43.5C21.2986 43.5 18.7663 42.9874 16.3983 41.965L16.3981 41.9649M31.6019 41.965L16.3981 41.9649M16.3981 41.9649C14.0204 40.9395 11.9571 39.5499 10.2037 37.7964M16.3981 41.9649L10.2037 37.7964M10.2037 37.7964C8.45017 36.0429 7.05984 33.9796 6.03316 31.6018M10.2037 37.7964L6.03316 31.6018M6.03316 31.6018C5.01204 29.2338 4.50012 26.7016 4.50012 24M6.03316 31.6018L4.50012 24M4.50012 24C4.50012 21.2984 5.01204 18.7662 6.03316 16.3982L4.50012 24ZM22.0142 16.3758L22.0154 16.3758C22.4585 16.3622 22.7871 16.4941 23.0466 16.7536L29.2466 22.9536C29.5591 23.2661 29.7001 23.6079 29.7001 24C29.7001 24.3921 29.5591 24.7339 29.2466 25.0464L23.0466 31.2464C22.734 31.559 22.3922 31.7 22.0001 31.7C21.6081 31.7 21.2662 31.559 20.9537 31.2464C20.686 30.9788 20.538 30.6377 20.5239 30.1859C20.5114 29.7424 20.6439 29.4134 20.9037 29.1536L25.7037 24.3536L26.0572 24L25.7037 23.6464L20.9537 18.8964C20.6411 18.5839 20.5001 18.2421 20.5001 17.85C20.5001 17.4579 20.6411 17.1161 20.9537 16.8036C21.2212 16.536 21.5623 16.3886 22.0142 16.3758ZM35.6798 12.3205L35.6796 12.3204C32.4679 9.11003 28.5652 7.5 24.0001 7.5C19.4351 7.5 15.5324 9.11003 12.3206 12.3204L12.3205 12.3205C9.11016 15.5322 7.50012 19.435 7.50012 24C7.50012 28.565 9.11016 32.4671 12.3206 35.6776C15.5323 38.8892 19.435 40.5 24.0001 40.5C28.5652 40.5 32.468 38.8892 35.6797 35.6776C38.8901 32.4671 40.5001 28.565 40.5001 24C40.5001 19.435 38.8901 15.5322 35.6798 12.3205Z" fill="white" stroke="black"/>
</g>
</g>
</svg>
