<svg width="40" height="40" viewBox="0 0 40 40" fill="none" xmlns="http://www.w3.org/2000/svg">
<g clip-path="url(#clip0_1_2132)">
<path d="M37.5494 7.07068C37.5465 6.71616 37.2581 6.431 36.9042 6.431C36.9023 6.431 36.9007 6.431 36.8987 6.431C36.5426 6.4339 36.2558 6.72519 36.2587 7.08165L36.2697 8.42261C32.5533 3.33552 26.6187 0.320679 20.2371 0.320679C14.0829 0.320679 8.38778 3.07681 4.61165 7.88229C4.39165 8.16229 4.44036 8.56778 4.72036 8.7881C5.00068 9.00842 5.40617 8.95971 5.62649 8.67939C9.15617 4.18713 14.4817 1.611 20.2371 1.611C26.2233 1.611 31.7829 4.451 35.2549 9.23197H33.89C33.5339 9.23197 33.2449 9.521 33.2449 9.87713C33.2449 10.2333 33.5339 10.5223 33.89 10.5223H36.9271C37.2794 10.5223 37.5752 10.2239 37.5723 9.87165L37.5494 7.07068Z" fill="#F84F7B"/>
<path d="M39.9999 19.8268C39.9999 17.4142 39.5589 15.0593 38.6892 12.8271C38.5599 12.4955 38.186 12.3309 37.8541 12.4603C37.5221 12.5893 37.3576 12.9638 37.4873 13.2958C38.2986 15.3777 38.7099 17.5751 38.7099 19.8268C38.7099 27.5668 33.8547 34.3458 26.5431 36.9526L27.2405 35.8858C27.4354 35.5877 27.3515 35.1877 27.0534 34.9929C26.7551 34.798 26.3554 34.8816 26.1602 35.18L24.6215 37.5345C24.407 37.8622 24.5431 38.3193 24.9012 38.4777L27.4934 39.6209C28.2544 39.9548 28.7754 38.7764 28.0141 38.4403L27.2041 38.0832C34.9028 35.2335 39.9999 28.0364 39.9999 19.8268Z" fill="#F84F7B"/>
<path d="M21.0025 38.0267C20.7487 38.0367 20.4935 38.0419 20.2371 38.0419C10.0513 38.0419 1.76448 29.8706 1.76448 19.8264C1.76448 18.0493 2.51126 15.8271 3.22287 13.9509L3.7919 15.21C4.13545 15.9693 5.30996 15.4354 4.96803 14.679L3.76513 12.0174C3.61642 11.689 3.21158 11.5445 2.88835 11.7061L0.356417 12.9745C0.0377074 13.1338 -0.0910023 13.5216 0.0683525 13.8403C0.22803 14.159 0.616417 14.2883 0.934159 14.1283L1.97319 13.608C1.23706 15.5596 0.474481 17.8735 0.474481 19.8267C0.474481 30.5822 9.33996 39.3325 20.2374 39.3325C20.5109 39.3325 20.7832 39.3267 21.0538 39.3161C21.41 39.3022 21.6871 39.0019 21.6729 38.6461C21.6587 38.2896 21.3577 38.0132 21.0025 38.0267C21.3577 38.0132 20.749 38.0371 21.0025 38.0267Z" fill="#F84F7B"/>
<path d="M20.0265 15.6223C17.521 15.6223 15.4829 17.6088 15.4829 20.051C15.4829 22.4926 17.521 24.4794 20.0265 24.4794C22.5319 24.4794 24.57 22.493 24.57 20.051C24.57 17.6091 22.5319 15.6223 20.0265 15.6223Z" fill="#F84F7B"/>
<path d="M31.3581 17.5561H30.0858C29.8648 16.6141 29.4774 15.6625 28.9458 14.7567L29.8545 13.8496C30.4122 13.2929 30.4239 12.3735 29.9135 11.78C29.6745 11.5019 28.6397 10.4451 28.3739 10.1906C27.831 9.67059 26.8616 9.5735 26.2958 10.1358L25.3926 11.037C24.5422 10.5216 23.6032 10.1251 22.631 9.87027V8.58511C22.631 7.77705 21.9958 7.11963 21.1916 7.09447C20.8216 7.08285 19.3358 7.07414 18.9677 7.09447C18.1826 7.13801 17.5284 7.79156 17.5284 8.58511V9.90576C16.5839 10.1264 15.629 10.5135 14.721 11.0445L13.8106 10.1361C13.2535 9.58027 12.3342 9.56898 11.7403 10.0774C11.4616 10.3158 10.4023 11.3487 10.1474 11.6141C9.62644 12.1561 9.52838 13.127 10.0929 13.6916L10.9945 14.5912C10.4787 15.439 10.0813 16.3754 9.82612 17.3448H8.53644C7.73419 17.3448 7.11902 18.0751 7.09709 18.8354C7.08644 19.2045 7.07677 20.687 7.09709 21.0545C7.14064 21.8403 7.79612 22.4922 8.58935 22.4922H9.8616C10.0826 23.4338 10.47 24.3858 11.0016 25.2919L10.0926 26.199C9.53483 26.7558 9.52354 27.6751 10.0339 28.2687C10.2729 28.5467 11.3081 29.6038 11.5739 29.8583C12.1181 30.379 13.0848 30.4732 13.6519 29.9129L14.5552 29.0116C15.4052 29.5267 16.3442 29.9235 17.3168 30.1783V31.4635C17.3168 32.2661 18.0493 32.8793 18.809 32.9012C19.179 32.9119 20.6648 32.9216 21.0329 32.9012C21.8181 32.8577 22.4722 32.2041 22.4722 31.4106V30.1429C23.4168 29.9222 24.3716 29.5348 25.2797 29.0041L26.19 29.9125C26.7474 30.4687 27.6661 30.4796 28.2603 29.9709C28.539 29.7325 29.5981 28.6996 29.8532 28.4345C30.3745 27.8925 30.4726 26.9216 29.9077 26.3567L29.0061 25.4574C29.5219 24.609 29.9193 23.6729 30.1745 22.7035H31.4642C32.0845 22.7035 32.67 22.2154 32.8429 21.6351C32.9329 21.3325 32.8842 18.7977 32.8987 18.9138C32.7984 18.1145 32.1648 17.5561 31.3581 17.5561ZM20.0264 25.7693C16.8097 25.7693 14.1926 23.2041 14.1926 20.0506C14.1926 16.897 16.8097 14.3316 20.0264 14.3316C23.2432 14.3316 25.8603 16.897 25.8603 20.0506C25.8603 23.2041 23.2435 25.7693 20.0264 25.7693Z" fill="#F84F7B"/>
</g>
<defs>
<clipPath id="clip0_1_2132">
<rect width="40" height="40" fill="white"/>
</clipPath>
</defs>
</svg>
