<svg width="40" height="40" viewBox="0 0 40 40" fill="none" xmlns="http://www.w3.org/2000/svg">
<mask id="mask0_1_4422" style="mask-type:alpha" maskUnits="userSpaceOnUse" x="0" y="0" width="40" height="40">
<rect width="40" height="40" fill="#D9D9D9"/>
</mask>
<g mask="url(#mask0_1_4422)">
<path d="M20 36.6667C17.6945 36.6667 15.5278 36.2289 13.5 35.3534C11.4723 34.4789 9.70837 33.2917 8.20837 31.7917C6.70837 30.2917 5.52115 28.5278 4.64671 26.5C3.77115 24.4723 3.33337 22.3056 3.33337 20C3.33337 17.6945 3.77115 15.5278 4.64671 13.5C5.52115 11.4723 6.70837 9.70837 8.20837 8.20837C9.70837 6.70837 11.4723 5.5206 13.5 4.64504C15.5278 3.7706 17.6945 3.33337 20 3.33337C22.3056 3.33337 24.4723 3.7706 26.5 4.64504C28.5278 5.5206 30.2917 6.70837 31.7917 8.20837C33.2917 9.70837 34.4789 11.4723 35.3534 13.5C36.2289 15.5278 36.6667 17.6945 36.6667 20C36.6667 22.3056 36.2289 24.4723 35.3534 26.5C34.4789 28.5278 33.2917 30.2917 31.7917 31.7917C30.2917 33.2917 28.5278 34.4789 26.5 35.3534C24.4723 36.2289 22.3056 36.6667 20 36.6667ZM18.3334 33.25V30C17.4167 30 16.6323 29.6739 15.98 29.0217C15.3267 28.3684 15 27.5834 15 26.6667V25L7.00004 17C6.91671 17.5 6.84004 18 6.77004 18.5C6.70115 19 6.66671 19.5 6.66671 20C6.66671 23.3612 7.77115 26.3056 9.98004 28.8334C12.1878 31.3612 14.9723 32.8334 18.3334 33.25ZM29.8334 29C30.3889 28.3889 30.8889 27.7289 31.3334 27.02C31.7778 26.3123 32.1462 25.5762 32.4384 24.8117C32.7295 24.0484 32.9517 23.2639 33.105 22.4584C33.2573 21.6528 33.3334 20.8334 33.3334 20C33.3334 17.2778 32.5767 14.7917 31.0634 12.5417C29.5489 10.2917 27.5278 8.66671 25 7.66671V8.33337C25 9.25004 24.6739 10.0345 24.0217 10.6867C23.3684 11.34 22.5834 11.6667 21.6667 11.6667H18.3334V15C18.3334 15.4723 18.1739 15.8678 17.855 16.1867C17.535 16.5067 17.1389 16.6667 16.6667 16.6667H13.3334V20H23.3334C23.8056 20 24.2017 20.1595 24.5217 20.4784C24.8406 20.7984 25 21.1945 25 21.6667V26.6667H26.6667C27.3889 26.6667 28.0417 26.8817 28.625 27.3117C29.2084 27.7428 29.6112 28.3056 29.8334 29Z" fill="#F84F7B"/>
</g>
</svg>
