<svg width="273" height="568" viewBox="0 0 273 568" fill="none" xmlns="http://www.w3.org/2000/svg">
<path d="M60.5081 36.877C60.5081 36.877 73.8667 -2.64769 115.612 0.140912C157.358 2.92952 187.69 31.5837 201.049 63.3104C214.407 95.037 221.646 95.037 229.436 101.716C237.226 108.396 250.601 118.114 257.272 131.222C265.337 147.085 260.887 173.519 260.887 173.519C260.887 173.519 249.474 147.92 241.125 142.911C232.775 137.901 217.196 129.552 217.196 129.552L232.224 142.911C232.224 142.911 215.526 133.443 211.068 129.552C206.609 125.662 204.948 133.443 205.507 139.012C206.067 144.581 214.407 153.481 212.738 159.05C211.068 164.619 189.36 176.307 185.469 177.418C181.579 178.528 188.809 177.418 188.809 169.069C188.809 160.72 181.011 154.04 181.011 159.609C181.011 165.178 176.561 164.619 176.561 164.619C176.561 164.619 182.13 150.141 179.901 142.911C177.671 135.681 177.12 135.113 170.992 146.802C164.864 158.49 154.294 165.17 154.294 165.17C154.294 165.17 162.092 148.471 162.643 135.672C163.194 122.873 155.964 135.672 155.964 135.672C155.964 135.672 142.605 134.002 140.384 125.653C138.163 117.304 147.063 99.4954 143.164 96.7068C139.265 93.9182 150.954 91.1463 143.164 74.9991C135.375 58.8519 106.153 77.5039 98.914 65.8151C91.6754 54.1263 81.9403 45.5017 75.261 45.5017C68.5817 45.5017 60.5081 36.877 60.5081 36.877Z" fill="black"/>
<path d="M92.6522 94.7615C92.6522 94.7615 89.0704 100.714 85.9729 102.175C82.8754 103.637 82.8754 103.319 82.8754 103.319C82.8754 103.319 84.1278 106.033 86.0063 106.242C86.6264 106.316 87.2554 106.237 87.8378 106.012C88.4202 105.786 88.9382 105.421 89.346 104.947C90.7427 103.437 91.8291 101.667 92.5437 99.7375C93.0226 98.1182 93.0601 96.4002 92.6522 94.7615Z" fill="black"/>
<path d="M83.9525 103.804L82.0072 106.45L82.8421 103.319L83.9525 103.804Z" fill="#F84F7B"/>
<path d="M84.512 104.43C84.2709 105.118 83.9921 105.793 83.6771 106.45V104.188L84.0945 104.505L84.512 104.43Z" fill="#F84F7B"/>
<path d="M125.698 153.765C125.698 153.765 127.151 158.49 125.698 161.279C124.821 162.949 123.723 164.494 122.433 165.871C122.433 165.871 127.718 162.247 128.695 158.073C129.672 153.898 129.989 151.619 129.989 151.619L132.018 150.417C132.018 150.417 133.563 157.38 129.388 163.366C126.835 167.011 123.947 170.409 120.764 173.519C120.764 173.519 133.095 166.146 135.901 159.743C138.706 153.339 138.096 154.858 138.096 154.858C138.096 154.858 139.641 163.366 135.901 169.486C132.16 175.606 129.664 179.088 126.324 182.703C122.985 186.318 116.447 188.272 116.447 188.272C116.447 188.272 122.985 187.579 125.214 186.602L127.443 185.625C127.443 185.625 119.227 193.281 116.447 194.392C114.357 195.181 112.218 195.834 110.043 196.345C110.043 196.345 101.31 215.306 126.608 192.446C131.793 187.762 156.665 161.972 157.775 159.609C158.565 157.964 158.975 156.162 158.975 154.337C158.975 152.511 158.565 150.71 157.775 149.064C155.763 144.439 155.271 144.13 154.436 143.671C152.141 142.509 149.728 141.6 147.239 140.957C145.151 140.615 142.663 139.747 141.461 140.122C140.259 140.498 137.804 143.504 137.387 143.988C136.969 144.472 133.738 148.931 132.553 149.415C131.367 149.899 125.698 153.765 125.698 153.765Z" fill="black"/>
<path d="M193.677 177.777C193.677 177.777 230.83 166.564 254.625 183.68C278.42 200.795 271.741 214.989 271.741 214.989C271.741 214.989 273.887 219.998 272.576 223.755C271.265 227.513 268.401 227.095 267.959 228.765C267.516 230.435 271.716 243.793 269.211 250.89C266.706 257.987 243.329 308.082 241.659 308.499C239.989 308.916 237.902 290.548 211.185 282.617C184.468 274.685 180.293 272.18 174.449 275.103C168.604 278.025 161.925 270.928 156.081 271.763C150.236 272.598 143.557 276.355 143.557 276.355L118.117 250.055C118.117 250.055 136.068 262.996 145.669 262.996C155.271 262.996 161.533 269.258 171.134 267.588C180.736 265.919 183.24 256.317 206.618 262.161C229.995 268.006 237.51 280.112 245.859 270.093C254.208 260.074 257.547 235.444 254.208 232.522C250.868 229.6 257.965 222.086 257.965 218.329C257.965 214.571 256.295 199.768 244.189 188.689C228.325 174.17 193.677 177.777 193.677 177.777Z" fill="black"/>
<path d="M163.205 226.087C157.462 224.086 154.774 216.816 157.201 209.849C159.629 202.882 166.253 198.856 171.996 200.858C177.739 202.859 180.427 210.129 178 217.096C175.572 224.063 168.949 228.088 163.205 226.087Z" fill="#F84F7B"/>
<path d="M176.979 196.345C178.231 194.533 191.172 186.184 202.026 184.097L212.88 182.01C212.88 182.01 212.045 213.736 212.88 224.59C213.715 235.444 202.026 238.784 195.564 238.784C189.102 238.784 170.299 235.06 170.299 235.06C170.299 235.06 197.434 238.784 202.443 230.017C207.453 221.251 211.21 193.281 207.035 191.194C202.861 189.107 176.979 196.345 176.979 196.345Z" fill="#F84F7B"/>
<path d="M197.851 241.339C197.851 244.628 197.058 249.638 191.615 250.473C186.171 251.307 167.402 254.28 162.785 245.906C158.168 237.531 158.97 231.27 158.97 231.27C158.97 231.27 153.601 247.024 164.455 251.666C175.309 256.309 193.259 255.791 197.851 251.666C202.443 247.542 197.851 241.339 197.851 241.339Z" fill="#F84F7B"/>
<path d="M182.823 185.349C182.823 183.68 182.405 167.724 174.891 168.184C167.377 168.643 118.952 201.63 118.117 206.222C117.282 210.814 150.261 245.046 152.766 246.715C155.271 248.385 124.796 212.426 125.422 207.475C126.049 202.524 167.585 169.904 172.178 173.06C176.77 176.216 182.823 185.349 182.823 185.349Z" fill="#F84F7B"/>
<path d="M121.457 194.533C121.457 194.533 90.4397 217.243 84.111 219.748C77.7824 222.253 62.4701 227.846 59.9654 243.125C57.4607 258.404 65.8098 272.047 65.8098 272.047C65.8098 272.047 56.7259 243.226 64.4238 235.594C83.7604 216.391 101.995 216.108 108.674 210.405C115.353 204.703 121.457 194.533 121.457 194.533Z" fill="black"/>
<path d="M84.8125 246.774C84.8125 246.774 75.2611 254.505 78.3169 269.258C81.3726 284.011 87.2755 295.741 101.928 303.314C119.228 312.256 158.969 311.004 158.969 311.004C158.969 311.004 113.976 309.184 101.92 298.346C90.924 288.469 79.7112 274.134 79.9867 263.831C80.0913 257.823 81.7542 251.946 84.8125 246.774Z" fill="black"/>
<path d="M78.584 270.51C78.584 270.51 73.4493 268.782 70.836 269.826C68.2227 270.869 64.8914 272.464 63.6391 272.08C62.2053 271.534 60.6622 271.339 59.1377 271.508C57.6131 271.678 56.1509 272.209 54.8725 273.057C50.5894 275.67 46.2061 282.867 45.3712 285.789C44.5363 288.711 45.3712 294.456 45.3712 294.456C45.3712 294.456 42.4406 286.107 45.0038 281.932C47.567 277.757 55.0812 270.101 58.3123 270.001C61.5434 269.901 62.4869 271.671 64.6827 271.045C66.8785 270.419 70.3184 268.331 72.7146 268.331C75.1108 268.331 78.584 270.51 78.584 270.51Z" fill="black"/>
<path d="M105.593 304.942C105.593 304.942 106.846 309.868 104.55 311.062L102.254 312.256C102.254 312.256 103.297 314.135 101.21 316.431C99.1229 318.727 93.9047 317.474 90.3563 316.431C86.808 315.387 83.0509 312.373 80.3374 311.062C78.0329 310.05 75.6618 309.196 73.2406 308.507C73.2406 308.507 82.2159 312.398 83.8858 313.859C85.5556 315.32 93.003 318.936 96.4762 319.002C99.9495 319.069 104.55 316.781 104.199 314.903C104.132 314.053 103.844 313.236 103.364 312.532C103.364 312.532 106.136 312.256 107.046 310.444C107.956 308.633 106.495 304.942 106.495 304.942H105.593Z" fill="black"/>
<path d="M48.1265 319.011C48.8346 320.221 49.8229 321.245 51.0084 321.994C52.1939 322.744 53.5419 323.198 54.9393 323.319C59.6065 323.594 61.6186 322.484 61.268 320.188C61.0837 318.866 60.7097 317.578 60.1575 316.364C60.1575 316.364 61.1344 318.869 60.2995 320.463C59.4646 322.058 58.6881 322.025 55.983 322.275C52.1591 322.634 48.1265 319.011 48.1265 319.011Z" fill="black"/>
<path d="M69.9009 310.027C69.9009 310.027 78.8762 315.454 79.4356 317.959C79.995 320.463 79.9532 321.716 78.6007 322.968C77.2481 324.22 76.1794 325.055 74.1589 324.713C72.1384 324.371 60.1741 316.364 60.1741 316.364C60.1741 316.364 73.0485 324.22 74.3008 324.154C75.5532 324.087 78.5422 322.626 78.8929 321.44C79.2435 320.255 79.494 317.75 77.7323 316.364C75.9707 314.978 69.9009 310.027 69.9009 310.027Z" fill="black"/>
<path d="M178.765 273.934C178.765 273.934 167.636 319.77 166.667 330.207C165.699 340.643 154.853 354.837 145.252 361.933C135.65 369.03 80.5458 438.745 73.2403 444.172C69.4167 446.899 65.8532 449.974 62.5952 453.356C62.5952 453.356 55.3565 447.512 48.1262 447.512C40.8959 447.512 27.9464 445.007 24.6067 445.425C21.2671 445.842 14.1703 442.92 14.1703 442.92C14.1703 442.92 22.3107 444.381 27.3202 444.172C32.3297 443.963 41.9312 445.425 45.6882 445.633C49.4454 445.842 55.2897 445.216 57.7945 447.721C58.8596 448.863 60.0217 449.91 61.2677 450.851C61.2677 450.851 68.2309 448.347 84.3029 428.726C100.375 409.106 130.432 372.787 136.276 366.108C142.121 359.429 153.809 351.497 157.775 346.07C161.741 340.643 166.333 321.29 167.168 311.972C168.003 302.655 174.265 273.934 174.265 273.934H178.765Z" fill="black"/>
<path d="M232.45 301.335C232.45 301.335 236.9 306.069 236.065 309.267C235.23 312.465 234.395 315.537 232.45 316.648C230.504 317.758 231.615 324.438 227.44 329.447C224.843 332.512 221.613 334.979 217.972 336.677L232.45 301.335Z" fill="black"/>
<path d="M208.847 365.549C208.687 366.564 208.687 367.598 208.847 368.613C209.123 370.007 206.059 375.016 208.847 376.686C211.636 378.356 214.216 382.531 212.922 384.476C211.628 386.421 212.546 388.375 212.922 389.761C213.297 391.147 216.913 389.761 218.582 393.66C219.546 396.167 219.546 398.943 218.582 401.45C218.582 401.45 199.663 415.643 185.186 419.818C170.709 423.992 158.97 426.222 158.97 426.222C158.97 426.222 206.059 407.854 210.793 403.955C215.527 400.055 216.637 394.77 214.132 394.219C211.628 393.668 207.453 395.33 208.012 390.88C208.572 386.43 211.352 384.752 208.847 381.696C206.343 378.64 204.514 371.117 206.618 369.172C208.722 367.227 208.847 365.549 208.847 365.549Z" fill="black"/>
<path d="M158.577 344.818C158.577 344.818 152.14 341.704 132.937 340.242C113.734 338.781 77.7158 341.077 77.7158 341.077C77.7158 341.077 124.379 339.307 133.981 342.313C143.582 345.319 156.314 347.865 156.314 347.865L158.577 344.818Z" fill="#F84F7B"/>
<path d="M164.129 328.562C164.129 328.562 153.81 319.954 135.859 319.862C117.909 319.77 105.385 320.814 105.385 320.814C105.385 320.814 131.267 320.505 144.626 324.212C157.984 327.919 162.443 334.799 162.443 334.799L164.129 328.562Z" fill="#F84F7B"/>
<path d="M171.134 294.414C169.94 295.032 161.533 290.131 151.514 288.252C141.495 286.374 134.757 285.748 134.757 285.748C134.757 285.748 156.106 289.505 160.906 292.844C165.707 296.184 171.134 299.106 171.134 299.106V294.414Z" fill="black"/>
<path d="M140.242 363.645C138.84 363.428 75.1192 373.413 73.2406 374.499C71.3621 375.584 113.108 370.575 121.666 369.089C130.223 367.602 135.442 364.914 136.276 366.15C137.111 367.385 140.242 363.645 140.242 363.645Z" fill="#F84F7B"/>
<path d="M124.379 382.597C121.325 382.879 118.314 383.51 115.404 384.476C111.438 385.937 111.304 389.126 115.404 387.607C119.503 386.087 122.292 385.303 122.292 385.303L124.379 382.597Z" fill="#F84F7B"/>
<path d="M206.117 363.645C206.117 363.645 194.904 383.683 183.215 391.197C171.526 398.711 88.4524 468.844 85.1128 470.096C81.7731 471.349 72.1716 485.125 70.9193 486.586C69.6669 488.047 68.2058 489.925 66.9534 490.343C65.701 490.76 63.405 489.09 63.405 489.09C63.405 489.09 65.3003 491.453 69.1075 487.696C72.9147 483.939 80.3538 471.198 83.6517 470.021C86.9496 468.844 153.576 413.113 156.915 409.774C160.255 406.434 182.021 387.523 186.346 386.188C190.671 384.852 206.117 363.645 206.117 363.645Z" fill="black"/>
<path d="M227.073 416.203C211.168 426.683 194.071 435.232 176.143 441.668C146.087 452.521 107.046 459.201 107.046 459.201L140.242 432.993C140.242 432.993 181.988 425.662 205.724 413.28C217.689 407.035 219.141 400.757 222.899 401.174C226.656 401.592 224.986 406.601 224.986 407.854C224.986 409.106 227.073 416.203 227.073 416.203Z" fill="black"/>
<path d="M229.353 420.795C229.353 420.795 259.217 471.307 249.616 504.286C240.014 537.265 229.127 550.624 229.353 558.138C229.524 561.336 229.524 564.541 229.353 567.739H209.123C209.123 567.739 221.646 539.352 235.005 523.906C248.363 508.46 248.363 488.005 243.078 467.408C237.793 446.811 227.073 427.616 227.073 427.616C227.073 427.616 209.841 439.305 195.564 443.195C181.287 447.086 147.615 453.356 147.615 453.356C147.615 453.356 188.125 444.489 205.725 434.938C223.324 425.387 229.353 420.795 229.353 420.795Z" fill="black"/>
<path d="M137.596 456.003C133.743 459.58 130.708 463.946 128.696 468.802C125.356 476.876 123.127 485.225 128.696 491.904C134.265 498.583 162.927 513.052 169.047 513.887L175.167 514.722C175.167 514.722 129.931 497.189 129.247 487.17C128.095 470.288 137.596 456.003 137.596 456.003Z" fill="#F84F7B"/>
<path d="M61.4847 492.322C61.4847 492.322 58.1451 490.927 55.7739 491.345C53.4028 491.762 51.3239 488.147 48.9611 487.446C46.5983 486.744 42.9747 487.863 41.7224 486.611C40.47 485.358 37.5478 480.633 37.5478 480.633C37.5478 480.633 39.9106 487.446 41.4468 488.147C42.9831 488.848 45.6214 487.863 47.9842 488.564C50.347 489.266 52.5762 491.762 54.388 492.322C56.1997 492.881 61.4847 492.322 61.4847 492.322Z" fill="black"/>
<path d="M32.5386 478.821C32.5386 478.821 27.5291 474.922 27.3872 473.67C27.2452 472.417 25.4418 471.724 23.6301 470.33C21.8183 468.936 20.4323 461.43 20.4323 461.43C20.4323 461.43 20.8498 468.66 22.2441 470.747C23.6384 472.835 26.1348 472.559 26.4855 473.536C26.8361 474.513 26.0012 476.458 28.0885 477.427C29.5138 478.06 31.0069 478.528 32.5386 478.821Z" fill="black"/>
<path d="M20.4325 456.554C20.4325 456.554 15.2811 454.884 14.1707 453.356C13.5656 452.366 12.7609 451.513 11.8079 450.852C10.831 450.159 10.831 445.007 11.8079 444.59C12.7847 444.172 9.99609 445.491 10.2048 448.071C10.4136 450.651 11.5991 451.127 12.434 452.037C13.269 452.947 12.9183 454.751 14.6549 455.377C16.5503 455.906 18.4811 456.299 20.4325 456.554Z" fill="black"/>
<path d="M49.5125 494.267C49.5125 494.267 22.3027 537.265 15.2811 548.536C8.25945 559.808 5.78811 567.739 5.78811 567.739H14.1372L49.5125 494.267Z" fill="black"/>
<path d="M43.952 319.01C43.952 319.01 10.973 347.74 4.84472 377.237C-1.28354 406.735 14.1707 442.92 14.1707 442.92C14.1707 442.92 -4.94879 404.313 1.22956 378.356C10.973 337.445 43.952 319.01 43.952 319.01Z" fill="black"/>
<path d="M144.559 106.45C144.559 106.45 138.155 89.3345 120.346 87.7315C102.538 86.1285 78.0414 64.1453 78.0414 64.1453C78.0414 64.1453 71.0866 59.4197 61.9026 64.1453C52.7185 68.8709 54.5219 76.9528 58.5629 88.8921C62.6039 100.831 72.5644 108.621 73.4494 110.065C74.3344 111.51 74.8854 124.401 75.8873 130.037C76.6471 134.353 80.4042 134.629 82.0072 133.585C83.0676 132.892 85.4471 130.896 86.1818 130.871C86.9165 130.846 89.6801 133.192 89.6801 133.192C89.6801 133.192 88.6865 136.841 91.5002 138.436C92.2939 138.898 93.1977 139.137 94.1162 139.128C95.0346 139.12 95.9337 138.863 96.7184 138.386C96.7184 138.386 96.0421 141.383 96.8269 142.877C97.0898 143.46 97.5044 143.961 98.0273 144.328C98.5502 144.695 99.1622 144.915 99.7992 144.965C101.469 145.24 104.917 143.236 104.917 143.236C104.917 143.236 110.044 152.788 112.69 153.623C122.893 156.846 137.42 143.988 137.42 143.988C137.42 143.988 142.889 167.958 139.967 173.385C137.045 178.812 121.14 193.782 115.888 201.213C110.636 208.643 74.9773 225.425 74.9773 225.425C74.9773 225.425 89.129 176.858 72.4725 161.279C55.816 145.699 44.0855 152.93 30.7269 115.634C17.3683 78.3388 19.9399 47.0713 43.3174 35.3825C66.695 23.6938 77.7158 26.0232 77.7158 26.0232L152.95 75.5585L144.559 106.45Z" fill="black"/>
<path d="M75.8624 98.6021C75.8624 98.6021 81.2893 90.1945 84.9713 87.8818C86.9471 86.593 89.0547 85.5182 91.2582 84.6758C91.2582 84.6758 83.8776 85.5608 79.3524 89.4765C76.5731 91.8995 74.1001 94.6528 71.9884 97.6753L75.8624 98.6021Z" fill="black"/>
<path d="M26.9031 52.5984C26.9031 52.5984 1.02087 93.8931 18.3453 127.74C35.6697 161.588 51.1156 162.181 57.5862 170.321C64.0567 178.461 70.2267 203.509 70.2267 203.509C70.2267 203.509 76.3717 174.855 66.9789 163.016C57.5862 151.176 48.6109 151.744 43.8101 134.837C39.0094 117.93 26.9031 52.5984 26.9031 52.5984Z" fill="black"/>
<path d="M72.1967 56.3555C72.1967 56.3555 83.8855 83.8491 104.758 88.917C125.631 93.985 131.058 99.3534 132.31 103.319C133.563 107.285 134.506 117.722 134.506 117.722C134.506 117.722 141.077 94.344 128.971 87.0385C121.284 82.5102 112.941 79.2009 104.241 77.2283L72.1967 56.3555Z" fill="black"/>
</svg>
