<svg width="48" height="48" viewBox="0 0 48 48" fill="none" xmlns="http://www.w3.org/2000/svg">
<g opacity="0.6">
<mask id="mask0_1_129" style="mask-type:alpha" maskUnits="userSpaceOnUse" x="0" y="0" width="48" height="48">
<rect width="48" height="48" transform="matrix(0 -1 -1 0 48 48)" fill="#D9D9D9"/>
</mask>
<g mask="url(#mask0_1_129)">
<path d="M6.03513 31.602L6.03504 31.6018C5.01258 29.2338 4.5 26.7015 4.5 24C4.5 21.2985 5.01258 18.7662 6.03504 16.3982L6.03513 16.398C7.06047 14.0203 8.45009 11.957 10.2036 10.2036C11.957 8.45009 14.0203 7.06047 16.398 6.03513L16.3982 6.03504C18.7662 5.01258 21.2985 4.5 24 4.5C26.7015 4.5 29.2338 5.01258 31.6018 6.03504L31.602 6.03513C33.9797 7.06047 36.043 8.45009 37.7964 10.2036C39.5499 11.957 40.9402 14.0203 41.9669 16.398L6.03513 31.602ZM6.03513 31.602C7.06047 33.9797 8.45009 36.043 10.2036 37.7964C11.957 39.5499 14.0203 40.9395 16.398 41.9649L16.3982 41.965M6.03513 31.602L16.3982 41.965M16.3982 41.965C18.7662 42.9874 21.2985 43.5 24 43.5C26.7015 43.5 29.2338 42.9874 31.6018 41.965L31.602 41.9649M16.3982 41.965L31.602 41.9649M31.602 41.9649C33.9797 40.9395 36.043 39.5499 37.7964 37.7964M31.602 41.9649L37.7964 37.7964M37.7964 37.7964C39.55 36.0429 40.9403 33.9796 41.967 31.6018M37.7964 37.7964L41.967 31.6018M41.967 31.6018C42.9881 29.2338 43.5 26.7016 43.5 24M41.967 31.6018L43.5 24M43.5 24C43.5 21.2984 42.9881 18.7662 41.967 16.3982L43.5 24ZM25.9859 16.3758L25.9847 16.3758C25.5416 16.3622 25.213 16.4941 24.9536 16.7536L18.7536 22.9536C18.441 23.2661 18.3 23.6079 18.3 24C18.3 24.3921 18.441 24.7339 18.7536 25.0464L24.9536 31.2464C25.2661 31.559 25.6079 31.7 26 31.7C26.3921 31.7 26.7339 31.559 27.0464 31.2464C27.3141 30.9788 27.4621 30.6377 27.4762 30.1859C27.4887 29.7424 27.3563 29.4134 27.0964 29.1536L22.2964 24.3536L21.9429 24L22.2964 23.6464L27.0464 18.8964C27.359 18.5839 27.5 18.2421 27.5 17.85C27.5 17.4579 27.359 17.1161 27.0464 16.8036C26.7789 16.536 26.4379 16.3886 25.9859 16.3758ZM12.3204 12.3205L12.3205 12.3204C15.5322 9.11003 19.435 7.5 24 7.5C28.565 7.5 32.4678 9.11003 35.6795 12.3204L35.6796 12.3205C38.89 15.5322 40.5 19.435 40.5 24C40.5 28.565 38.89 32.4671 35.6796 35.6776C32.4679 38.8892 28.5651 40.5 24 40.5C19.4349 40.5 15.5321 38.8892 12.3204 35.6776C9.11004 32.4671 7.5 28.565 7.5 24C7.5 19.435 9.11003 15.5322 12.3204 12.3205Z" fill="white" stroke="black"/>
</g>
</g>
</svg>
