<svg width="71" height="16" viewBox="0 0 71 16" fill="none" xmlns="http://www.w3.org/2000/svg">
<path d="M2.07617 7.97852C2.07617 11.748 3.77865 13.6328 7.18359 13.6328C10.5169 13.6328 12.1836 11.748 12.1836 7.97852C12.1836 4.26107 10.5169 2.40234 7.18359 2.40234C3.77865 2.40234 2.07617 4.26107 2.07617 7.97852ZM0.171875 8.03711C0.171875 3.30404 2.50911 0.9375 7.18359 0.9375C11.7865 0.9375 14.0879 3.30404 14.0879 8.03711C14.0879 12.7441 11.7865 15.0977 7.18359 15.0977C2.50911 15.0977 0.171875 12.7441 0.171875 8.03711ZM16.9297 15V1.03516H22.5938C25.4453 1.03516 26.8711 2.2819 26.8711 4.77539C26.8711 7.49023 24.9212 9.14714 21.0215 9.74609L20.6504 8.22266C23.515 7.79948 24.9473 6.67643 24.9473 4.85352C24.9473 3.30404 24.1074 2.5293 22.4277 2.5293H18.7363V15H16.9297ZM38.6973 1.03516V2.5H34.3027V15H32.4961V2.5H28.1016V1.03516H38.6973ZM43.248 1.03516V15H40.6602V1.03516H43.248ZM59.4883 1.03516L53.3652 15H50.582L44.7227 1.03516H47.7988L52.125 11.7285L56.4414 1.03516H59.4883ZM70.123 1.03516V3.26172H63.5215V6.77734H69.791V9.0918H63.4922V15H60.9531V1.03516H70.123Z" fill="white"/>
</svg>
