<svg width="22" height="18" viewBox="0 0 22 18" fill="none" xmlns="http://www.w3.org/2000/svg">
<path d="M21.6732 2.52561C20.9078 2.86478 20.0855 3.09395 19.2211 3.19753C20.113 2.66384 20.7803 1.82387 21.0985 0.834363C20.2605 1.3321 19.3434 1.68246 18.387 1.8702C17.7438 1.18349 16.8919 0.728329 15.9636 0.575381C15.0352 0.422433 14.0824 0.580255 13.2529 1.02434C12.4235 1.46843 11.7638 2.17394 11.3764 3.03134C10.989 3.88874 10.8955 4.85005 11.1105 5.76603C9.4125 5.68078 7.75145 5.23945 6.2351 4.47069C4.71874 3.70194 3.38098 2.62293 2.30862 1.3037C1.94196 1.9362 1.73112 2.66953 1.73112 3.45053C1.73072 4.15361 1.90385 4.84592 2.23518 5.46603C2.56651 6.08615 3.04577 6.6149 3.63046 7.00536C2.95238 6.98379 2.28926 6.80056 1.69629 6.47095V6.52595C1.69622 7.51204 2.03732 8.46779 2.66171 9.23103C3.2861 9.99426 4.15532 10.518 5.12187 10.7133C4.49284 10.8835 3.83335 10.9086 3.19321 10.7866C3.46591 11.6351 3.99712 12.3771 4.71246 12.9086C5.4278 13.4402 6.29147 13.7348 7.18254 13.7511C5.66989 14.9386 3.80177 15.5827 1.87871 15.5799C1.53806 15.58 1.19769 15.5601 0.859375 15.5203C2.81139 16.7754 5.08369 17.4414 7.40437 17.4389C15.2602 17.4389 19.5548 10.9324 19.5548 5.28936C19.5548 5.10603 19.5502 4.92086 19.542 4.73753C20.3773 4.13342 21.0984 3.38535 21.6714 2.52836L21.6732 2.52561V2.52561Z" fill="white"/>
</svg>
